<svg xmlns="http://www.w3.org/2000/svg" version="1.1" width="15.5in" height="11.5in" viewBox = " 0 0 1395 1035" >
<!-- Front--> 
<g transform="translate(22.5, 22.5) " > 
<polygon style="stroke:#000000; fill:none; stroke-width:0.9" points="0, 0 28.125, 0 28.125, 10.62 56.25, 10.62 56.25, 0 78.75, 0 78.75, 10.62 101.25, 10.62 101.25, 0 123.75, 0 123.75, 10.62 146.25, 10.62 146.25, 0 168.75, 0 168.75, 10.62 191.25, 10.62 191.25, 0 213.75, 0 213.75, 10.62 236.25, 10.62 236.25, 0 258.75, 0 258.75, 10.62 281.25, 10.62 281.25, 0 303.75, 0 303.75, 10.62 331.875, 10.62 331.875, 0 360, 0 360, 28.125 349.38, 28.125 349.38, 56.25 360, 56.25 360, 78.75 349.38, 78.75 349.38, 101.25 360, 101.25 360, 123.75 349.38, 123.75 349.38, 146.25 360, 146.25 360, 168.75 349.38, 168.75 349.38, 191.25 360, 191.25 360, 213.75 349.38, 213.75 349.38, 236.25 360, 236.25 360, 258.75 349.38, 258.75 349.38, 281.25 360, 281.25 360, 303.75 349.38, 303.75 349.38, 331.875 360, 331.875 360, 360 331.875, 360 331.875, 349.38 303.75, 349.38 303.75, 360 281.25, 360 281.25, 349.38 258.75, 349.38 258.75, 360 236.25, 360 236.25, 349.38 213.75, 349.38 213.75, 360 191.25, 360 191.25, 349.38 168.75, 349.38 168.75, 360 146.25, 360 146.25, 349.38 123.75, 349.38 123.75, 360 101.25, 360 101.25, 349.38 78.75, 349.38 78.75, 360 56.25, 360 56.25, 349.38 28.125, 349.38 28.125, 360 0, 360 0, 331.875 10.62, 331.875 10.62, 303.75 0, 303.75 0, 281.25 10.62, 281.25 10.62, 258.75 0, 258.75 0, 236.25 10.62, 236.25 10.62, 213.75 0, 213.75 0, 191.25 10.62, 191.25 10.62, 168.75 0, 168.75 0, 146.25 10.62, 146.25 10.62, 123.75 0, 123.75 0, 101.25 10.62, 101.25 10.62, 78.75 0, 78.75 0, 56.25 10.62, 56.25 10.62, 28.125 0, 28.125 "/> 
</g>
<!-- Back--> 
<g transform="translate(382.5, 22.5) " > 
<polygon style="stroke:#000000; fill:none; stroke-width:0.9" points="0, 0 28.125, 0 28.125, 10.62 56.25, 10.62 56.25, 0 78.75, 0 78.75, 10.62 101.25, 10.62 101.25, 0 123.75, 0 123.75, 10.62 146.25, 10.62 146.25, 0 168.75, 0 168.75, 10.62 191.25, 10.62 191.25, 0 213.75, 0 213.75, 10.62 236.25, 10.62 236.25, 0 258.75, 0 258.75, 10.62 281.25, 10.62 281.25, 0 303.75, 0 303.75, 10.62 331.875, 10.62 331.875, 0 360, 0 360, 28.125 349.38, 28.125 349.38, 56.25 360, 56.25 360, 78.75 349.38, 78.75 349.38, 101.25 360, 101.25 360, 123.75 349.38, 123.75 349.38, 146.25 360, 146.25 360, 168.75 349.38, 168.75 349.38, 191.25 360, 191.25 360, 213.75 349.38, 213.75 349.38, 236.25 360, 236.25 360, 258.75 349.38, 258.75 349.38, 281.25 360, 281.25 360, 303.75 349.38, 303.75 349.38, 331.875 360, 331.875 360, 360 331.875, 360 331.875, 349.38 303.75, 349.38 303.75, 360 281.25, 360 281.25, 349.38 258.75, 349.38 258.75, 360 236.25, 360 236.25, 349.38 213.75, 349.38 213.75, 360 191.25, 360 191.25, 349.38 168.75, 349.38 168.75, 360 146.25, 360 146.25, 349.38 123.75, 349.38 123.75, 360 101.25, 360 101.25, 349.38 78.75, 349.38 78.75, 360 56.25, 360 56.25, 349.38 28.125, 349.38 28.125, 360 0, 360 0, 331.875 10.62, 331.875 10.62, 303.75 0, 303.75 0, 281.25 10.62, 281.25 10.62, 258.75 0, 258.75 0, 236.25 10.62, 236.25 10.62, 213.75 0, 213.75 0, 191.25 10.62, 191.25 10.62, 168.75 0, 168.75 0, 146.25 10.62, 146.25 10.62, 123.75 0, 123.75 0, 101.25 10.62, 101.25 10.62, 78.75 0, 78.75 0, 56.25 10.62, 56.25 10.62, 28.125 0, 28.125 "/> 
</g>
<!-- Left--> 
<g transform="translate(742.5, 22.5) " > 
<polygon style="stroke:#000000; fill:none; stroke-width:0.9" points="10.62, 0 28.125, 0 28.125, 10.62 56.25, 10.62 56.25, 0 78.75, 0 78.75, 10.62 101.25, 10.62 101.25, 0 123.75, 0 123.75, 10.62 146.25, 10.62 146.25, 0 168.75, 0 168.75, 10.62 191.25, 10.62 191.25, 0 213.75, 0 213.75, 10.62 236.25, 10.62 236.25, 0 258.75, 0 258.75, 10.62 281.25, 10.62 281.25, 0 303.75, 0 303.75, 10.62 326.25, 10.62 326.25, 0 348.75, 0 348.75, 10.62 371.25, 10.62 371.25, 0 393.75, 0 393.75, 10.62 416.25, 10.62 416.25, 0 438.75, 0 438.75, 10.62 461.25, 10.62 461.25, 0 483.75, 0 483.75, 10.62 506.25, 10.62 506.25, 0 528.75, 0 528.75, 10.62 551.25, 10.62 551.25, 0 573.75, 0 573.75, 10.62 601.875, 10.62 601.875, 0 619.38, 0 619.38, 28.125 630, 28.125 630, 56.25 619.38, 56.25 619.38, 78.75 630, 78.75 630, 101.25 619.38, 101.25 619.38, 123.75 630, 123.75 630, 146.25 619.38, 146.25 619.38, 168.75 630, 168.75 630, 191.25 619.38, 191.25 619.38, 213.75 630, 213.75 630, 236.25 619.38, 236.25 619.38, 258.75 630, 258.75 630, 281.25 619.38, 281.25 619.38, 303.75 630, 303.75 630, 331.875 619.38, 331.875 619.38, 360 601.875, 360 601.875, 349.38 573.75, 349.38 573.75, 360 551.25, 360 551.25, 349.38 528.75, 349.38 528.75, 360 506.25, 360 506.25, 349.38 483.75, 349.38 483.75, 360 461.25, 360 461.25, 349.38 438.75, 349.38 438.75, 360 416.25, 360 416.25, 349.38 393.75, 349.38 393.75, 360 371.25, 360 371.25, 349.38 348.75, 349.38 348.75, 360 326.25, 360 326.25, 349.38 303.75, 349.38 303.75, 360 281.25, 360 281.25, 349.38 258.75, 349.38 258.75, 360 236.25, 360 236.25, 349.38 213.75, 349.38 213.75, 360 191.25, 360 191.25, 349.38 168.75, 349.38 168.75, 360 146.25, 360 146.25, 349.38 123.75, 349.38 123.75, 360 101.25, 360 101.25, 349.38 78.75, 349.38 78.75, 360 56.25, 360 56.25, 349.38 28.125, 349.38 28.125, 360 10.62, 360 10.62, 331.875 0, 331.875 0, 303.75 10.62, 303.75 10.62, 281.25 0, 281.25 0, 258.75 10.62, 258.75 10.62, 236.25 0, 236.25 0, 213.75 10.62, 213.75 10.62, 191.25 0, 191.25 0, 168.75 10.62, 168.75 10.62, 146.25 0, 146.25 0, 123.75 10.62, 123.75 10.62, 101.25 0, 101.25 0, 78.75 10.62, 78.75 10.62, 56.25 0, 56.25 0, 28.125 10.62, 28.125 "/> 
 <rect x="315" y="180" width="18" height="45" rx="0" ry="0" style="stroke:#000000;stroke-width:0.9;fill:none" /> 
 <rect x="450" y="180" width="18" height="45" rx="0" ry="0" style="stroke:#000000;stroke-width:0.9;fill:none" /> 
</g>
<!-- Right--> 
<g transform="translate(742.5, 382.5) " > 
<polygon style="stroke:#000000; fill:none; stroke-width:0.9" points="10.62, 0 28.125, 0 28.125, 10.62 56.25, 10.62 56.25, 0 78.75, 0 78.75, 10.62 101.25, 10.62 101.25, 0 123.75, 0 123.75, 10.62 146.25, 10.62 146.25, 0 168.75, 0 168.75, 10.62 191.25, 10.62 191.25, 0 213.75, 0 213.75, 10.62 236.25, 10.62 236.25, 0 258.75, 0 258.75, 10.62 281.25, 10.62 281.25, 0 303.75, 0 303.75, 10.62 326.25, 10.62 326.25, 0 348.75, 0 348.75, 10.62 371.25, 10.62 371.25, 0 393.75, 0 393.75, 10.62 416.25, 10.62 416.25, 0 438.75, 0 438.75, 10.62 461.25, 10.62 461.25, 0 483.75, 0 483.75, 10.62 506.25, 10.62 506.25, 0 528.75, 0 528.75, 10.62 551.25, 10.62 551.25, 0 573.75, 0 573.75, 10.62 601.875, 10.62 601.875, 0 619.38, 0 619.38, 28.125 630, 28.125 630, 56.25 619.38, 56.25 619.38, 78.75 630, 78.75 630, 101.25 619.38, 101.25 619.38, 123.75 630, 123.75 630, 146.25 619.38, 146.25 619.38, 168.75 630, 168.75 630, 191.25 619.38, 191.25 619.38, 213.75 630, 213.75 630, 236.25 619.38, 236.25 619.38, 258.75 630, 258.75 630, 281.25 619.38, 281.25 619.38, 303.75 630, 303.75 630, 331.875 619.38, 331.875 619.38, 360 601.875, 360 601.875, 349.38 573.75, 349.38 573.75, 360 551.25, 360 551.25, 349.38 528.75, 349.38 528.75, 360 506.25, 360 506.25, 349.38 483.75, 349.38 483.75, 360 461.25, 360 461.25, 349.38 438.75, 349.38 438.75, 360 416.25, 360 416.25, 349.38 393.75, 349.38 393.75, 360 371.25, 360 371.25, 349.38 348.75, 349.38 348.75, 360 326.25, 360 326.25, 349.38 303.75, 349.38 303.75, 360 281.25, 360 281.25, 349.38 258.75, 349.38 258.75, 360 236.25, 360 236.25, 349.38 213.75, 349.38 213.75, 360 191.25, 360 191.25, 349.38 168.75, 349.38 168.75, 360 146.25, 360 146.25, 349.38 123.75, 349.38 123.75, 360 101.25, 360 101.25, 349.38 78.75, 349.38 78.75, 360 56.25, 360 56.25, 349.38 28.125, 349.38 28.125, 360 10.62, 360 10.62, 331.875 0, 331.875 0, 303.75 10.62, 303.75 10.62, 281.25 0, 281.25 0, 258.75 10.62, 258.75 10.62, 236.25 0, 236.25 0, 213.75 10.62, 213.75 10.62, 191.25 0, 191.25 0, 168.75 10.62, 168.75 10.62, 146.25 0, 146.25 0, 123.75 10.62, 123.75 10.62, 101.25 0, 101.25 0, 78.75 10.62, 78.75 10.62, 56.25 0, 56.25 0, 28.125 10.62, 28.125 "/> 
</g>
<!-- Top--> 
<g transform="translate(22.5, 382.5) " > 
 <rect x="90" y="270" width="180" height="27" rx="0" ry="0" style="stroke:#000000;stroke-width:0.9;fill:none" /> 
 <circle cx="112.5" cy="405" r="17.1" style="stroke:#000000;stroke-width:0.9;fill:none" /> 
 <circle cx="247.5" cy="405" r="17.1" style="stroke:#000000;stroke-width:0.9;fill:none" /> 
 <circle cx="247.5" cy="495" r="17.1" style="stroke:#000000;stroke-width:0.9;fill:none" /> 
<polygon style="stroke:#000000; fill:none; stroke-width:0.9" points="10.62, 10.62 28.125, 10.62 28.125, 0 56.25, 0 56.25, 10.62 78.75, 10.62 78.75, 0 101.25, 0 101.25, 10.62 123.75, 10.62 123.75, 0 146.25, 0 146.25, 10.62 168.75, 10.62 168.75, 0 191.25, 0 191.25, 10.62 213.75, 10.62 213.75, 0 236.25, 0 236.25, 10.62 258.75, 10.62 258.75, 0 281.25, 0 281.25, 10.62 303.75, 10.62 303.75, 0 331.875, 0 331.875, 10.62 349.38, 10.62 349.38, 28.125 360, 28.125 360, 56.25 349.38, 56.25 349.38, 78.75 360, 78.75 360, 101.25 349.38, 101.25 349.38, 123.75 360, 123.75 360, 146.25 349.38, 146.25 349.38, 168.75 360, 168.75 360, 191.25 349.38, 191.25 349.38, 213.75 360, 213.75 360, 236.25 349.38, 236.25 349.38, 258.75 360, 258.75 360, 281.25 349.38, 281.25 349.38, 303.75 360, 303.75 360, 326.25 349.38, 326.25 349.38, 348.75 360, 348.75 360, 371.25 349.38, 371.25 349.38, 393.75 360, 393.75 360, 416.25 349.38, 416.25 349.38, 438.75 360, 438.75 360, 461.25 349.38, 461.25 349.38, 483.75 360, 483.75 360, 506.25 349.38, 506.25 349.38, 528.75 360, 528.75 360, 551.25 349.38, 551.25 349.38, 573.75 360, 573.75 360, 601.875 349.38, 601.875 349.38, 619.38 331.875, 619.38 331.875, 630 303.75, 630 303.75, 619.38 281.25, 619.38 281.25, 630 258.75, 630 258.75, 619.38 236.25, 619.38 236.25, 630 213.75, 630 213.75, 619.38 191.25, 619.38 191.25, 630 168.75, 630 168.75, 619.38 146.25, 619.38 146.25, 630 123.75, 630 123.75, 619.38 101.25, 619.38 101.25, 630 78.75, 630 78.75, 619.38 56.25, 619.38 56.25, 630 28.125, 630 28.125, 619.38 10.62, 619.38 10.62, 601.875 0, 601.875 0, 573.75 10.62, 573.75 10.62, 551.25 0, 551.25 0, 528.75 10.62, 528.75 10.62, 506.25 0, 506.25 0, 483.75 10.62, 483.75 10.62, 461.25 0, 461.25 0, 438.75 10.62, 438.75 10.62, 416.25 0, 416.25 0, 393.75 10.62, 393.75 10.62, 371.25 0, 371.25 0, 348.75 10.62, 348.75 10.62, 326.25 0, 326.25 0, 303.75 10.62, 303.75 10.62, 281.25 0, 281.25 0, 258.75 10.62, 258.75 10.62, 236.25 0, 236.25 0, 213.75 10.62, 213.75 10.62, 191.25 0, 191.25 0, 168.75 10.62, 168.75 10.62, 146.25 0, 146.25 0, 123.75 10.62, 123.75 10.62, 101.25 0, 101.25 0, 78.75 10.62, 78.75 10.62, 56.25 0, 56.25 0, 28.125 10.62, 28.125 "/> 
 <circle cx="112.5" cy="495" r="17.1" style="stroke:#000000;stroke-width:0.9;fill:none" /> 
</g>
<!-- Bottom--> 
<g transform="translate(382.5, 382.5) " > 
<polygon style="stroke:#000000; fill:none; stroke-width:0.9" points="10.62, 10.62 28.125, 10.62 28.125, 0 56.25, 0 56.25, 10.62 78.75, 10.62 78.75, 0 101.25, 0 101.25, 10.62 123.75, 10.62 123.75, 0 146.25, 0 146.25, 10.62 168.75, 10.62 168.75, 0 191.25, 0 191.25, 10.62 213.75, 10.62 213.75, 0 236.25, 0 236.25, 10.62 258.75, 10.62 258.75, 0 281.25, 0 281.25, 10.62 303.75, 10.62 303.75, 0 331.875, 0 331.875, 10.62 349.38, 10.62 349.38, 28.125 360, 28.125 360, 56.25 349.38, 56.25 349.38, 78.75 360, 78.75 360, 101.25 349.38, 101.25 349.38, 123.75 360, 123.75 360, 146.25 349.38, 146.25 349.38, 168.75 360, 168.75 360, 191.25 349.38, 191.25 349.38, 213.75 360, 213.75 360, 236.25 349.38, 236.25 349.38, 258.75 360, 258.75 360, 281.25 349.38, 281.25 349.38, 303.75 360, 303.75 360, 326.25 349.38, 326.25 349.38, 348.75 360, 348.75 360, 371.25 349.38, 371.25 349.38, 393.75 360, 393.75 360, 416.25 349.38, 416.25 349.38, 438.75 360, 438.75 360, 461.25 349.38, 461.25 349.38, 483.75 360, 483.75 360, 506.25 349.38, 506.25 349.38, 528.75 360, 528.75 360, 551.25 349.38, 551.25 349.38, 573.75 360, 573.75 360, 601.875 349.38, 601.875 349.38, 619.38 331.875, 619.38 331.875, 630 303.75, 630 303.75, 619.38 281.25, 619.38 281.25, 630 258.75, 630 258.75, 619.38 236.25, 619.38 236.25, 630 213.75, 630 213.75, 619.38 191.25, 619.38 191.25, 630 168.75, 630 168.75, 619.38 146.25, 619.38 146.25, 630 123.75, 630 123.75, 619.38 101.25, 619.38 101.25, 630 78.75, 630 78.75, 619.38 56.25, 619.38 56.25, 630 28.125, 630 28.125, 619.38 10.62, 619.38 10.62, 601.875 0, 601.875 0, 573.75 10.62, 573.75 10.62, 551.25 0, 551.25 0, 528.75 10.62, 528.75 10.62, 506.25 0, 506.25 0, 483.75 10.62, 483.75 10.62, 461.25 0, 461.25 0, 438.75 10.62, 438.75 10.62, 416.25 0, 416.25 0, 393.75 10.62, 393.75 10.62, 371.25 0, 371.25 0, 348.75 10.62, 348.75 10.62, 326.25 0, 326.25 0, 303.75 10.62, 303.75 10.62, 281.25 0, 281.25 0, 258.75 10.62, 258.75 10.62, 236.25 0, 236.25 0, 213.75 10.62, 213.75 10.62, 191.25 0, 191.25 0, 168.75 10.62, 168.75 10.62, 146.25 0, 146.25 0, 123.75 10.62, 123.75 10.62, 101.25 0, 101.25 0, 78.75 10.62, 78.75 10.62, 56.25 0, 56.25 0, 28.125 10.62, 28.125 "/> 
</g></svg>